{
    "accessors" : [
        {
            "bufferView" : 0,
            "componentType" : 5123,
            "count" : 372,
            "max" : [
                290
            ],
            "min" : [
                0
            ],
            "type" : "SCALAR"
        },
        {
            "bufferView" : 1,
            "componentType" : 5126,
            "count" : 291,
            "max" : [
                1.8086439371109009,
                2.634793519973755,
                1.8086439371109009
            ],
            "min" : [
                -1.8086439371109009,
                0.0,
                -1.8086439371109009
            ],
            "type" : "VEC3"
        },
        {
            "bufferView" : 2,
            "componentType" : 5126,
            "count" : 291,
            "max" : [
                0.980546236038208,
                1.0,
                0.980546236038208
            ],
            "min" : [
                -0.9805461764335632,
                -1.0,
                -0.980546236038208
            ],
            "type" : "VEC3"
        },
        {
            "bufferView" : 3,
            "componentType" : 5123,
            "count" : 1572,
            "max" : [
                1571
            ],
            "min" : [
                0
            ],
            "type" : "SCALAR"
        },
        {
            "bufferView" : 4,
            "componentType" : 5126,
            "count" : 1572,
            "max" : [
                1.5686590671539307,
                2.622539758682251,
                1.585103154182434
            ],
            "min" : [
                -1.5428663492202759,
                2.1406993865966797,
                -1.6161506175994873
            ],
            "type" : "VEC3"
        },
        {
            "bufferView" : 5,
            "componentType" : 5126,
            "count" : 1572,
            "max" : [
                0.7984522581100464,
                0.9999976754188538,
                0.8980551958084106
            ],
            "min" : [
                -0.9143660068511963,
                0.27399492263793945,
                -0.7505679726600647
            ],
            "type" : "VEC3"
        },
        {
            "bufferView" : 6,
            "componentType" : 5123,
            "count" : 1434,
            "max" : [
                883
            ],
            "min" : [
                0
            ],
            "type" : "SCALAR"
        },
        {
            "bufferView" : 7,
            "componentType" : 5126,
            "count" : 884,
            "max" : [
                0.5,
                1.4050410985946655,
                -0.0
            ],
            "min" : [
                -6.152501583099365,
                -1.4050410985946655,
                -2.1830761432647705
            ],
            "type" : "VEC3"
        },
        {
            "bufferView" : 8,
            "componentType" : 5126,
            "count" : 884,
            "max" : [
                0.9859910011291504,
                1.0,
                0.9859910607337952
            ],
            "min" : [
                -0.9891268610954285,
                -1.0,
                -0.9910025596618652
            ],
            "type" : "VEC3"
        },
        {
            "bufferView" : 9,
            "componentType" : 5123,
            "count" : 30351,
            "max" : [
                5145
            ],
            "min" : [
                0
            ],
            "type" : "SCALAR"
        },
        {
            "bufferView" : 10,
            "componentType" : 5126,
            "count" : 5146,
            "max" : [
                0.9999613165855408,
                0.06295070797204971,
                0.9999590516090393
            ],
            "min" : [
                -1.000075101852417,
                -0.04846375063061714,
                -1.0004152059555054
            ],
            "type" : "VEC3"
        },
        {
            "bufferView" : 11,
            "componentType" : 5126,
            "count" : 5146,
            "max" : [
                0.48921170830726624,
                0.999969482421875,
                0.41026031970977783
            ],
            "min" : [
                -0.599017322063446,
                0.7470930814743042,
                -0.3977477252483368
            ],
            "type" : "VEC3"
        },
        {
            "bufferView" : 12,
            "componentType" : 5126,
            "count" : 5146,
            "max" : [
                0.06553537398576736,
                0.4063924252986908,
                -0.911345362663269,
                1.0
            ],
            "min" : [
                -0.15876732766628265,
                -0.3979041874408722,
                -0.9999998807907104,
                1.0
            ],
            "type" : "VEC4"
        },
        {
            "bufferView" : 13,
            "componentType" : 5126,
            "count" : 5146,
            "max" : [
                0.9999001026153564,
                0.9999000946336309
            ],
            "min" : [
                9.990536636905745e-05,
                0.001592397689819336
            ],
            "type" : "VEC2"
        },
        {
            "bufferView" : 14,
            "componentType" : 5123,
            "count" : 108,
            "max" : [
                67
            ],
            "min" : [
                0
            ],
            "type" : "SCALAR"
        },
        {
            "bufferView" : 15,
            "componentType" : 5126,
            "count" : 68,
            "max" : [
                11.828813552856445,
                3.1668689250946045,
                1.0
            ],
            "min" : [
                -1.3166784048080444,
                0.0,
                -1.0
            ],
            "type" : "VEC3"
        },
        {
            "bufferView" : 16,
            "componentType" : 5126,
            "count" : 68,
            "max" : [
                1.0,
                1.0,
                1.0
            ],
            "min" : [
                -1.0,
                -1.0,
                -1.0
            ],
            "type" : "VEC3"
        },
        {
            "bufferView" : 17,
            "componentType" : 5123,
            "count" : 1374,
            "max" : [
                247
            ],
            "min" : [
                0
            ],
            "type" : "SCALAR"
        },
        {
            "bufferView" : 18,
            "componentType" : 5126,
            "count" : 248,
            "max" : [
                0.9999632835388184,
                0.06401932239532471,
                1.0000349283218384
            ],
            "min" : [
                -1.0002140998840332,
                -0.050243884325027466,
                -1.000395655632019
            ],
            "type" : "VEC3"
        },
        {
            "bufferView" : 19,
            "componentType" : 5126,
            "count" : 248,
            "max" : [
                0.3188268542289734,
                0.999969482421875,
                0.25058749318122864
            ],
            "min" : [
                -0.3429364860057831,
                0.9358500838279724,
                -0.2719809412956238
            ],
            "type" : "VEC3"
        }
    ],
    "asset" : {
        "generator" : "Khronos Blender glTF 2.0 exporter",
        "version" : "2.0"
    },
    "bufferViews" : [
        {
            "buffer" : 0,
            "byteLength" : 744,
            "byteOffset" : 0,
            "target" : 34963
        },
        {
            "buffer" : 0,
            "byteLength" : 3492,
            "byteOffset" : 744,
            "target" : 34962
        },
        {
            "buffer" : 0,
            "byteLength" : 3492,
            "byteOffset" : 4236,
            "target" : 34962
        },
        {
            "buffer" : 0,
            "byteLength" : 3144,
            "byteOffset" : 7728,
            "target" : 34963
        },
        {
            "buffer" : 0,
            "byteLength" : 18864,
            "byteOffset" : 10872,
            "target" : 34962
        },
        {
            "buffer" : 0,
            "byteLength" : 18864,
            "byteOffset" : 29736,
            "target" : 34962
        },
        {
            "buffer" : 0,
            "byteLength" : 2868,
            "byteOffset" : 48600,
            "target" : 34963
        },
        {
            "buffer" : 0,
            "byteLength" : 10608,
            "byteOffset" : 51468,
            "target" : 34962
        },
        {
            "buffer" : 0,
            "byteLength" : 10608,
            "byteOffset" : 62076,
            "target" : 34962
        },
        {
            "buffer" : 0,
            "byteLength" : 60702,
            "byteOffset" : 72684,
            "target" : 34963
        },
        {
            "buffer" : 0,
            "byteLength" : 61752,
            "byteOffset" : 133388,
            "target" : 34962
        },
        {
            "buffer" : 0,
            "byteLength" : 61752,
            "byteOffset" : 195140,
            "target" : 34962
        },
        {
            "buffer" : 0,
            "byteLength" : 82336,
            "byteOffset" : 256892,
            "target" : 34962
        },
        {
            "buffer" : 0,
            "byteLength" : 41168,
            "byteOffset" : 339228,
            "target" : 34962
        },
        {
            "buffer" : 0,
            "byteLength" : 216,
            "byteOffset" : 380396,
            "target" : 34963
        },
        {
            "buffer" : 0,
            "byteLength" : 816,
            "byteOffset" : 380612,
            "target" : 34962
        },
        {
            "buffer" : 0,
            "byteLength" : 816,
            "byteOffset" : 381428,
            "target" : 34962
        },
        {
            "buffer" : 0,
            "byteLength" : 2748,
            "byteOffset" : 382244,
            "target" : 34963
        },
        {
            "buffer" : 0,
            "byteLength" : 2976,
            "byteOffset" : 384992,
            "target" : 34962
        },
        {
            "buffer" : 0,
            "byteLength" : 2976,
            "byteOffset" : 387968,
            "target" : 34962
        }
    ],
    "buffers" : [
        {
            "byteLength" : 390944,
            "uri" : "clayfield.bin"
        }
    ],
    "materials" : [
        {
            "name" : "bucket",
            "pbrMetallicRoughness" : {}
        },
        {
            "name" : "clay",
            "pbrMetallicRoughness" : {
                "metallicFactor" : 0.0,
                "roughnessFactor" : 0.2186528444290161
            }
        },
        {
            "name" : "shovel",
            "pbrMetallicRoughness" : {}
        }
    ],
    "meshes" : [
        {
            "name" : "Cylinder.002",
            "primitives" : [
                {
                    "attributes" : {
                        "NORMAL" : 2,
                        "POSITION" : 1
                    },
                    "indices" : 0,
                    "material" : 0
                },
                {
                    "attributes" : {
                        "NORMAL" : 5,
                        "POSITION" : 4
                    },
                    "indices" : 3,
                    "material" : 1
                }
            ]
        },
        {
            "name" : "Cylinder.003",
            "primitives" : [
                {
                    "attributes" : {
                        "NORMAL" : 8,
                        "POSITION" : 7
                    },
                    "indices" : 6
                }
            ]
        },
        {
            "name" : "Plane",
            "primitives" : [
                {
                    "attributes" : {
                        "NORMAL" : 11,
                        "POSITION" : 10,
                        "TANGENT" : 12,
                        "TEXCOORD_0" : 13
                    },
                    "indices" : 9,
                    "material" : 1
                }
            ]
        },
        {
            "name" : "Shovel",
            "primitives" : [
                {
                    "attributes" : {
                        "NORMAL" : 16,
                        "POSITION" : 15
                    },
                    "indices" : 14,
                    "material" : 2
                }
            ]
        },
        {
            "name" : "Plane.003",
            "primitives" : [
                {
                    "attributes" : {
                        "NORMAL" : 19,
                        "POSITION" : 18
                    },
                    "indices" : 17,
                    "material" : 1
                }
            ]
        }
    ],
    "nodes" : [
        {
            "name" : "2D",
            "scale" : [
                3.1608693599700928,
                3.1608693599700928,
                3.1608693599700928
            ]
        },
        {
            "mesh" : 2,
            "name" : "HighRes",
            "scale" : [
                16.957624435424805,
                16.957624435424805,
                16.957624435424805
            ]
        },
        {
            "mesh" : 3,
            "name" : "Item1",
            "rotation" : [
                0.5967801213264465,
                0.7978619337081909,
                -0.0016086564864963293,
                0.08524847775697708
            ],
            "scale" : [
                1.0,
                0.10437321662902832,
                1.0
            ],
            "translation" : [
                -7.665576457977295,
                0.2583972215652466,
                9.593710899353027
            ]
        },
        {
            "mesh" : 0,
            "name" : "Item2",
            "rotation" : [
                -0.05087759345769882,
                9.337576933887703e-09,
                -0.05119069665670395,
                0.9973921179771423
            ],
            "scale" : [
                1.0,
                0.9999999403953552,
                0.9999999403953552
            ],
            "translation" : [
                6.887081146240234,
                0.761489987373352,
                -11.679781913757324
            ]
        },
        {
            "mesh" : 1,
            "name" : "Item3",
            "rotation" : [
                0.44930264353752136,
                0.5460101962089539,
                -0.5460101962089539,
                0.449302613735199
            ],
            "scale" : [
                2.141106128692627,
                2.141106128692627,
                2.141106367111206
            ],
            "translation" : [
                12.523604393005371,
                -0.0735795795917511,
                2.380524158477783
            ]
        },
        {
            "mesh" : 4,
            "name" : "LowRes",
            "scale" : [
                16.957624435424805,
                16.957624435424805,
                16.957624435424805
            ]
        },
        {
            "name" : "P1",
            "translation" : [
                -7.196535110473633,
                6.180858135223389,
                11.329773902893066
            ]
        },
        {
            "name" : "P2",
            "translation" : [
                11.116738319396973,
                6.278719425201416,
                -11.920710563659668
            ]
        },
        {
            "name" : "P3",
            "translation" : [
                14.943890571594238,
                6.180858135223389,
                13.603675842285156
            ]
        }
    ],
    "scene" : 0,
    "scenes" : [
        {
            "name" : "Scene",
            "nodes" : [
                0,
                5,
                8,
                4,
                7,
                6,
                1,
                2,
                3
            ]
        }
    ]
}
