{
    "accessors" : [
        {
            "bufferView" : 0,
            "componentType" : 5123,
            "count" : 6,
            "max" : [
                3
            ],
            "min" : [
                0
            ],
            "type" : "SCALAR"
        },
        {
            "bufferView" : 1,
            "componentType" : 5126,
            "count" : 4,
            "max" : [
                4.614246845245361,
                9.228494644165039,
                -0.0
            ],
            "min" : [
                -4.614246845245361,
                0.0,
                -0.0
            ],
            "type" : "VEC3"
        },
        {
            "bufferView" : 2,
            "componentType" : 5126,
            "count" : 4,
            "max" : [
                0.0,
                -0.0,
                1.0
            ],
            "min" : [
                0.0,
                -0.0,
                1.0
            ],
            "type" : "VEC3"
        },
        {
            "bufferView" : 3,
            "componentType" : 5123,
            "count" : 204,
            "max" : [
                119
            ],
            "min" : [
                0
            ],
            "type" : "SCALAR"
        },
        {
            "bufferView" : 4,
            "componentType" : 5126,
            "count" : 120,
            "max" : [
                26.849729537963867,
                16.117929458618164,
                24.84105110168457
            ],
            "min" : [
                -22.24314308166504,
                -6.122783702267043e-07,
                -30.6922550201416
            ],
            "type" : "VEC3"
        },
        {
            "bufferView" : 5,
            "componentType" : 5126,
            "count" : 120,
            "max" : [
                0.9865092635154724,
                1.0,
                0.9946625828742981
            ],
            "min" : [
                -0.9826616048812866,
                -1.0,
                -0.9987839460372925
            ],
            "type" : "VEC3"
        },
        {
            "bufferView" : 6,
            "componentType" : 5123,
            "count" : 50472,
            "max" : [
                10729
            ],
            "min" : [
                0
            ],
            "type" : "SCALAR"
        },
        {
            "bufferView" : 7,
            "componentType" : 5126,
            "count" : 10730,
            "max" : [
                27.275493621826172,
                5.301658630371094,
                27.262605667114258
            ],
            "min" : [
                -23.877059936523438,
                -0.67510986328125,
                -20.393657684326172
            ],
            "type" : "VEC3"
        },
        {
            "bufferView" : 8,
            "componentType" : 5126,
            "count" : 10730,
            "max" : [
                0.9984130263328552,
                0.999969482421875,
                0.9976806044578552
            ],
            "min" : [
                -0.99981689453125,
                -0.9979247450828552,
                -0.999847412109375
            ],
            "type" : "VEC3"
        },
        {
            "bufferView" : 9,
            "componentType" : 5126,
            "count" : 10730,
            "max" : [
                0.9998238682746887,
                1.0000421300828748
            ],
            "min" : [
                0.0,
                5.960464477539063e-08
            ],
            "type" : "VEC2"
        },
        {
            "bufferView" : 10,
            "componentType" : 5123,
            "count" : 1260,
            "max" : [
                671
            ],
            "min" : [
                0
            ],
            "type" : "SCALAR"
        },
        {
            "bufferView" : 11,
            "componentType" : 5126,
            "count" : 672,
            "max" : [
                26.733211517333984,
                5.259932518005371,
                26.021520614624023
            ],
            "min" : [
                -23.095436096191406,
                -0.6388611793518066,
                -17.116960525512695
            ],
            "type" : "VEC3"
        },
        {
            "bufferView" : 12,
            "componentType" : 5126,
            "count" : 672,
            "max" : [
                0.9981831908226013,
                1.0,
                0.9807853102684021
            ],
            "min" : [
                -0.9981836080551147,
                -1.0,
                -0.9807852506637573
            ],
            "type" : "VEC3"
        },
        {
            "bufferView" : 13,
            "componentType" : 5126,
            "count" : 672,
            "max" : [
                0.0,
                1.0
            ],
            "min" : [
                0.0,
                1.0
            ],
            "type" : "VEC2"
        },
        {
            "bufferView" : 14,
            "componentType" : 5123,
            "count" : 13710,
            "max" : [
                5155
            ],
            "min" : [
                0
            ],
            "type" : "SCALAR"
        },
        {
            "bufferView" : 15,
            "componentType" : 5126,
            "count" : 5156,
            "max" : [
                14.796935081481934,
                1.6976633071899414,
                -14.173310279846191
            ],
            "min" : [
                -5.687821388244629,
                -0.9911841154098511,
                -30.88043785095215
            ],
            "type" : "VEC3"
        },
        {
            "bufferView" : 16,
            "componentType" : 5126,
            "count" : 5156,
            "max" : [
                0.9989623427391052,
                0.9999769330024719,
                0.9996337890625
            ],
            "min" : [
                -0.9939635396003723,
                -0.9999814033508301,
                -0.9832049608230591
            ],
            "type" : "VEC3"
        },
        {
            "bufferView" : 17,
            "componentType" : 5126,
            "count" : 5156,
            "max" : [
                0.0,
                1.0
            ],
            "min" : [
                0.0,
                1.0
            ],
            "type" : "VEC2"
        },
        {
            "bufferView" : 18,
            "componentType" : 5123,
            "count" : 372,
            "max" : [
                371
            ],
            "min" : [
                0
            ],
            "type" : "SCALAR"
        },
        {
            "bufferView" : 19,
            "componentType" : 5126,
            "count" : 372,
            "max" : [
                5.243062496185303,
                1.227773666381836,
                -13.917236328125
            ],
            "min" : [
                1.6257745027542114,
                0.37721022963523865,
                -17.520111083984375
            ],
            "type" : "VEC3"
        },
        {
            "bufferView" : 20,
            "componentType" : 5126,
            "count" : 372,
            "max" : [
                0.9804344773292542,
                0.9996600151062012,
                0.956764280796051
            ],
            "min" : [
                -0.9804344773292542,
                -0.9996599555015564,
                -0.9769009351730347
            ],
            "type" : "VEC3"
        },
        {
            "bufferView" : 21,
            "componentType" : 5126,
            "count" : 372,
            "max" : [
                0.0,
                1.0
            ],
            "min" : [
                0.0,
                1.0
            ],
            "type" : "VEC2"
        },
        {
            "bufferView" : 22,
            "componentType" : 5123,
            "count" : 108,
            "max" : [
                71
            ],
            "min" : [
                0
            ],
            "type" : "SCALAR"
        },
        {
            "bufferView" : 23,
            "componentType" : 5126,
            "count" : 72,
            "max" : [
                7.076258182525635,
                4.661721229553223,
                -23.511884689331055
            ],
            "min" : [
                4.994962692260742,
                0.9110596179962158,
                -27.108339309692383
            ],
            "type" : "VEC3"
        },
        {
            "bufferView" : 24,
            "componentType" : 5126,
            "count" : 72,
            "max" : [
                0.8196874856948853,
                0.9977757930755615,
                0.7084749937057495
            ],
            "min" : [
                -0.819688081741333,
                -0.9977758526802063,
                -0.7084749937057495
            ],
            "type" : "VEC3"
        },
        {
            "bufferView" : 25,
            "componentType" : 5126,
            "count" : 72,
            "max" : [
                0.0,
                1.0
            ],
            "min" : [
                0.0,
                1.0
            ],
            "type" : "VEC2"
        },
        {
            "bufferView" : 26,
            "componentType" : 5123,
            "count" : 936,
            "max" : [
                645
            ],
            "min" : [
                0
            ],
            "type" : "SCALAR"
        },
        {
            "bufferView" : 27,
            "componentType" : 5126,
            "count" : 646,
            "max" : [
                -5.910195350646973,
                2.607377767562866,
                12.740957260131836
            ],
            "min" : [
                -14.25400447845459,
                -0.31841614842414856,
                3.8953046798706055
            ],
            "type" : "VEC3"
        },
        {
            "bufferView" : 28,
            "componentType" : 5126,
            "count" : 646,
            "max" : [
                0.98727947473526,
                0.9996600151062012,
                0.9455350041389465
            ],
            "min" : [
                -0.98727947473526,
                -0.9996600151062012,
                -0.9455371499061584
            ],
            "type" : "VEC3"
        },
        {
            "bufferView" : 29,
            "componentType" : 5126,
            "count" : 646,
            "max" : [
                0.0,
                1.0
            ],
            "min" : [
                0.0,
                1.0
            ],
            "type" : "VEC2"
        },
        {
            "bufferView" : 30,
            "componentType" : 5123,
            "count" : 36,
            "max" : [
                23
            ],
            "min" : [
                0
            ],
            "type" : "SCALAR"
        },
        {
            "bufferView" : 31,
            "componentType" : 5126,
            "count" : 24,
            "max" : [
                6.198141574859619,
                12.396283149719238,
                6.198141574859619
            ],
            "min" : [
                -6.198141574859619,
                0.0,
                -6.198141574859619
            ],
            "type" : "VEC3"
        },
        {
            "bufferView" : 32,
            "componentType" : 5126,
            "count" : 24,
            "max" : [
                1.0,
                1.0,
                1.0
            ],
            "min" : [
                -1.0,
                -1.0,
                -1.0
            ],
            "type" : "VEC3"
        }
    ],
    "asset" : {
        "generator" : "Khronos Blender glTF 2.0 exporter",
        "version" : "2.0"
    },
    "bufferViews" : [
        {
            "buffer" : 0,
            "byteLength" : 12,
            "byteOffset" : 0,
            "target" : 34963
        },
        {
            "buffer" : 0,
            "byteLength" : 48,
            "byteOffset" : 12,
            "target" : 34962
        },
        {
            "buffer" : 0,
            "byteLength" : 48,
            "byteOffset" : 60,
            "target" : 34962
        },
        {
            "buffer" : 0,
            "byteLength" : 408,
            "byteOffset" : 108,
            "target" : 34963
        },
        {
            "buffer" : 0,
            "byteLength" : 1440,
            "byteOffset" : 516,
            "target" : 34962
        },
        {
            "buffer" : 0,
            "byteLength" : 1440,
            "byteOffset" : 1956,
            "target" : 34962
        },
        {
            "buffer" : 0,
            "byteLength" : 100944,
            "byteOffset" : 3396,
            "target" : 34963
        },
        {
            "buffer" : 0,
            "byteLength" : 128760,
            "byteOffset" : 104340,
            "target" : 34962
        },
        {
            "buffer" : 0,
            "byteLength" : 128760,
            "byteOffset" : 233100,
            "target" : 34962
        },
        {
            "buffer" : 0,
            "byteLength" : 85840,
            "byteOffset" : 361860,
            "target" : 34962
        },
        {
            "buffer" : 0,
            "byteLength" : 2520,
            "byteOffset" : 447700,
            "target" : 34963
        },
        {
            "buffer" : 0,
            "byteLength" : 8064,
            "byteOffset" : 450220,
            "target" : 34962
        },
        {
            "buffer" : 0,
            "byteLength" : 8064,
            "byteOffset" : 458284,
            "target" : 34962
        },
        {
            "buffer" : 0,
            "byteLength" : 5376,
            "byteOffset" : 466348,
            "target" : 34962
        },
        {
            "buffer" : 0,
            "byteLength" : 27420,
            "byteOffset" : 471724,
            "target" : 34963
        },
        {
            "buffer" : 0,
            "byteLength" : 61872,
            "byteOffset" : 499144,
            "target" : 34962
        },
        {
            "buffer" : 0,
            "byteLength" : 61872,
            "byteOffset" : 561016,
            "target" : 34962
        },
        {
            "buffer" : 0,
            "byteLength" : 41248,
            "byteOffset" : 622888,
            "target" : 34962
        },
        {
            "buffer" : 0,
            "byteLength" : 744,
            "byteOffset" : 664136,
            "target" : 34963
        },
        {
            "buffer" : 0,
            "byteLength" : 4464,
            "byteOffset" : 664880,
            "target" : 34962
        },
        {
            "buffer" : 0,
            "byteLength" : 4464,
            "byteOffset" : 669344,
            "target" : 34962
        },
        {
            "buffer" : 0,
            "byteLength" : 2976,
            "byteOffset" : 673808,
            "target" : 34962
        },
        {
            "buffer" : 0,
            "byteLength" : 216,
            "byteOffset" : 676784,
            "target" : 34963
        },
        {
            "buffer" : 0,
            "byteLength" : 864,
            "byteOffset" : 677000,
            "target" : 34962
        },
        {
            "buffer" : 0,
            "byteLength" : 864,
            "byteOffset" : 677864,
            "target" : 34962
        },
        {
            "buffer" : 0,
            "byteLength" : 576,
            "byteOffset" : 678728,
            "target" : 34962
        },
        {
            "buffer" : 0,
            "byteLength" : 1872,
            "byteOffset" : 679304,
            "target" : 34963
        },
        {
            "buffer" : 0,
            "byteLength" : 7752,
            "byteOffset" : 681176,
            "target" : 34962
        },
        {
            "buffer" : 0,
            "byteLength" : 7752,
            "byteOffset" : 688928,
            "target" : 34962
        },
        {
            "buffer" : 0,
            "byteLength" : 5168,
            "byteOffset" : 696680,
            "target" : 34962
        },
        {
            "buffer" : 0,
            "byteLength" : 72,
            "byteOffset" : 701848,
            "target" : 34963
        },
        {
            "buffer" : 0,
            "byteLength" : 288,
            "byteOffset" : 701920,
            "target" : 34962
        },
        {
            "buffer" : 0,
            "byteLength" : 288,
            "byteOffset" : 702208,
            "target" : 34962
        }
    ],
    "buffers" : [
        {
            "byteLength" : 702496,
            "uri" : "claypit.bin"
        }
    ],
    "materials" : [
        {
            "name" : "box",
            "pbrMetallicRoughness" : {}
        },
        {
            "name" : "bucket",
            "pbrMetallicRoughness" : {}
        },
        {
            "name" : "clay",
            "pbrMetallicRoughness" : {}
        },
        {
            "doubleSided" : true,
            "name" : "cloth",
            "pbrMetallicRoughness" : {}
        },
        {
            "emissiveFactor" : [
                1.0,
                1.0,
                1.0
            ],
            "name" : "Collision",
            "pbrMetallicRoughness" : {
                "metallicFactor" : 0.0,
                "roughnessFactor" : 0.0
            }
        },
        {
            "name" : "Material",
            "pbrMetallicRoughness" : {}
        },
        {
            "doubleSided" : true,
            "name" : "Material.2D",
            "pbrMetallicRoughness" : {}
        },
        {
            "name" : "shovel",
            "pbrMetallicRoughness" : {}
        },
        {
            "name" : "sticks",
            "pbrMetallicRoughness" : {}
        }
    ],
    "meshes" : [
        {
            "name" : "Plane.001",
            "primitives" : [
                {
                    "attributes" : {
                        "NORMAL" : 2,
                        "POSITION" : 1
                    },
                    "indices" : 0,
                    "material" : 6
                }
            ]
        },
        {
            "name" : "Plane",
            "primitives" : [
                {
                    "attributes" : {
                        "NORMAL" : 5,
                        "POSITION" : 4
                    },
                    "indices" : 3,
                    "material" : 4
                }
            ]
        },
        {
            "name" : "Cylinder",
            "primitives" : [
                {
                    "attributes" : {
                        "NORMAL" : 8,
                        "POSITION" : 7,
                        "TEXCOORD_0" : 9
                    },
                    "indices" : 6,
                    "material" : 3
                },
                {
                    "attributes" : {
                        "NORMAL" : 12,
                        "POSITION" : 11,
                        "TEXCOORD_0" : 13
                    },
                    "indices" : 10,
                    "material" : 8
                },
                {
                    "attributes" : {
                        "NORMAL" : 16,
                        "POSITION" : 15,
                        "TEXCOORD_0" : 17
                    },
                    "indices" : 14,
                    "material" : 2
                },
                {
                    "attributes" : {
                        "NORMAL" : 20,
                        "POSITION" : 19,
                        "TEXCOORD_0" : 21
                    },
                    "indices" : 18,
                    "material" : 1
                },
                {
                    "attributes" : {
                        "NORMAL" : 24,
                        "POSITION" : 23,
                        "TEXCOORD_0" : 25
                    },
                    "indices" : 22,
                    "material" : 7
                },
                {
                    "attributes" : {
                        "NORMAL" : 28,
                        "POSITION" : 27,
                        "TEXCOORD_0" : 29
                    },
                    "indices" : 26,
                    "material" : 0
                }
            ]
        },
        {
            "name" : "Cube",
            "primitives" : [
                {
                    "attributes" : {
                        "NORMAL" : 32,
                        "POSITION" : 31
                    },
                    "indices" : 30,
                    "material" : 5
                }
            ]
        }
    ],
    "nodes" : [
        {
            "mesh" : 0,
            "name" : "2D"
        },
        {
            "mesh" : 1,
            "name" : "Collision_side",
            "translation" : [
                0.0,
                0.0,
                1.9073486328125e-06
            ]
        },
        {
            "mesh" : 2,
            "name" : "HighRes",
            "rotation" : [
                -0.04463516175746918,
                0.0,
                -0.0,
                0.9990034103393555
            ],
            "scale" : [
                1.0,
                3.4322707653045654,
                1.0
            ]
        },
        {
            "mesh" : 3,
            "name" : "LowRes"
        }
    ],
    "scene" : 0,
    "scenes" : [
        {
            "name" : "Scene",
            "nodes" : [
                0,
                3,
                2,
                1
            ]
        }
    ]
}
